<svg width="24" height="24" viewBox="0 0 24 24" fill="none" xmlns="http://www.w3.org/2000/svg">
<path d="M10 5C10.7692 5 11.469 5.29156 12 5.76758C12.531 5.29156 13.2308 5 14 5H20L20.2041 5.01074C21.2128 5.113 22 5.96435 22 7V19C22 20.0357 21.2128 20.887 20.2041 20.9893L20 21H14L13.8457 20.9961C13.1374 20.9602 12.4952 20.6771 12 20.2334C11.5048 20.6771 10.8626 20.9602 10.1543 20.9961L10 21H4C2.89543 21 2 20.1046 2 19V7C2 5.89543 2.89543 5 4 5H10ZM4 19H10C10.5523 19 11 18.5523 11 18V8C11 7.44772 10.5523 7 10 7H4V19ZM14 7C13.4477 7 13 7.44772 13 8V18C13 18.5523 13.4477 19 14 19H20V7H14Z" fill="#B4B4B4"/>
</svg>
