<svg width="138" height="30" viewBox="0 0 138 30" fill="none" xmlns="http://www.w3.org/2000/svg">
<path d="M35.9997 4.83982L30.3596 26.7198C30.0663 27.8665 29.6263 28.6798 29.0396 29.1598C28.4796 29.6132 27.5997 29.8398 26.3996 29.8398C25.1996 29.8398 24.3196 29.5865 23.7597 29.0798C23.1996 28.5732 22.773 27.7465 22.4797 26.5998L18.1996 9.03982H18.1196L13.8396 26.5998C13.573 27.7465 13.1463 28.5732 12.5596 29.0798C11.9996 29.5865 11.1196 29.8398 9.91965 29.8398C8.74632 29.8398 7.86632 29.6132 7.27965 29.1598C6.69298 28.6798 6.25298 27.8665 5.95965 26.7198L0.319648 4.83982C0.106315 4.03982 -0.000351541 3.41316 -0.000351541 2.95982C-0.000351541 2.02649 0.319648 1.30649 0.959648 0.799822C1.59965 0.266489 2.33298 -0.000177383 3.15965 -0.000177383C4.83965 -0.000177383 5.86632 0.893156 6.23965 2.67982L10.1196 21.7998H10.1996L14.6796 2.43982C14.8663 1.58649 15.1996 0.973155 15.6796 0.599822C16.1596 0.199822 16.973 -0.000177383 18.1196 -0.000177383C19.373 -0.000177383 20.2396 0.253156 20.7196 0.759822C21.2263 1.26649 21.5996 2.05316 21.8396 3.11982L26.1996 21.7998H26.2796L30.1997 2.67982C30.573 0.893156 31.5597 -0.000177383 33.1597 -0.000177383C33.9863 -0.000177383 34.7196 0.266489 35.3597 0.799822C35.9997 1.30649 36.3197 2.02649 36.3197 2.95982C36.3197 3.41316 36.213 4.03982 35.9997 4.83982ZM38.9909 26.9198V2.91982C38.9909 1.98649 39.2442 1.26649 39.7509 0.759822C40.2842 0.253156 41.0042 -0.000177383 41.9109 -0.000177383C42.8176 -0.000177383 43.5242 0.253156 44.0309 0.759822C44.5642 1.26649 44.8309 1.98649 44.8309 2.91982V10.9598H44.9109C45.6042 10.0532 46.4842 9.31982 47.5509 8.75982C48.6176 8.17316 49.9109 7.87982 51.4309 7.87982C52.3642 7.87982 53.2576 8.01316 54.1109 8.27982C54.9909 8.51982 55.7776 8.94649 56.4709 9.55982C57.1909 10.1465 57.7509 10.9465 58.1509 11.9598C58.5776 12.9465 58.7909 14.1465 58.7909 15.5598V26.9198C58.7909 27.7998 58.5642 28.5065 58.1109 29.0398C57.6842 29.5732 56.9376 29.8398 55.8709 29.8398C54.8042 29.8398 54.0442 29.5732 53.5909 29.0398C53.1642 28.5065 52.9509 27.7998 52.9509 26.9198V16.7198C52.9509 15.4932 52.6442 14.5198 52.0309 13.7998C51.4176 13.0532 50.4976 12.6798 49.2709 12.6798C48.1509 12.6798 47.1242 13.1065 46.1909 13.9598C45.2842 14.7865 44.8309 15.8932 44.8309 17.2798V26.9198C44.8309 27.7998 44.6042 28.5065 44.1509 29.0398C43.7242 29.5732 42.9776 29.8398 41.9109 29.8398C40.8442 29.8398 40.0842 29.5732 39.6309 29.0398C39.2042 28.5065 38.9909 27.7998 38.9909 26.9198ZM82.844 13.8798V23.6798C82.844 24.3465 82.884 24.8932 82.964 25.3198C83.044 25.7465 83.1374 26.1732 83.244 26.5998C83.3774 27.0265 83.444 27.3598 83.444 27.5998C83.444 28.2398 83.1774 28.7732 82.644 29.1998C82.1374 29.6265 81.524 29.8398 80.804 29.8398C79.6307 29.8398 78.7774 29.5332 78.244 28.9198C77.7107 28.2798 77.4174 27.4532 77.364 26.4398C76.2707 27.6398 75.0707 28.5065 73.764 29.0398C72.4574 29.5732 70.9907 29.8398 69.364 29.8398C67.604 29.8398 66.0574 29.2932 64.724 28.1998C63.4174 27.0798 62.764 25.6398 62.764 23.8798C62.764 22.7065 62.964 21.7198 63.364 20.9198C63.7907 20.0932 64.364 19.4398 65.084 18.9598C65.8307 18.4532 66.684 18.0665 67.644 17.7998C68.6307 17.5065 69.724 17.2932 70.924 17.1598L74.484 16.7598C75.3107 16.6532 75.9374 16.4665 76.364 16.1998C76.7907 15.9065 77.004 15.3732 77.004 14.5998C77.004 13.7998 76.6574 13.1998 75.964 12.7998C75.2707 12.3998 74.3907 12.1998 73.324 12.1998C72.2307 12.1998 71.364 12.3732 70.724 12.7198C70.084 13.0665 69.444 13.5465 68.804 14.1598C68.3774 14.5865 68.004 14.9065 67.684 15.1198C67.364 15.3065 66.9907 15.3998 66.564 15.3998C65.844 15.3998 65.244 15.1865 64.764 14.7598C64.3107 14.3065 64.084 13.7732 64.084 13.1598C64.084 12.5732 64.284 11.9732 64.684 11.3598C65.1107 10.7198 65.724 10.1465 66.524 9.63982C67.324 9.10649 68.2974 8.67982 69.444 8.35982C70.6174 8.03982 71.924 7.87982 73.364 7.87982C76.2974 7.87982 78.604 8.37316 80.284 9.35982C81.9907 10.3465 82.844 11.8532 82.844 13.8798ZM77.004 21.7598V19.4798C76.7374 19.7198 76.3907 19.9065 75.964 20.0398C75.564 20.1732 75.084 20.2932 74.524 20.3998H74.484L72.364 20.7198C71.084 20.9065 70.1374 21.2265 69.524 21.6798C68.9107 22.1065 68.604 22.7465 68.604 23.5998C68.604 24.2665 68.8974 24.8398 69.484 25.3198C70.0707 25.7732 70.8574 25.9998 71.844 25.9998C73.3907 25.9998 74.6307 25.5865 75.564 24.7598C76.524 23.9065 77.004 22.9065 77.004 21.7598ZM89.4171 24.6398V12.2398H88.4171C86.8705 12.2398 86.0971 11.5998 86.0971 10.3198C86.0971 9.03982 86.8705 8.39982 88.4171 8.39982H89.4171V4.83982C89.4171 3.90649 89.6705 3.18649 90.1771 2.67982C90.7105 2.17316 91.4305 1.91982 92.3371 1.91982C93.2438 1.91982 93.9505 2.17316 94.4571 2.67982C94.9905 3.18649 95.2571 3.90649 95.2571 4.83982V8.39982H97.0171C98.7771 8.39982 99.6571 9.03982 99.6571 10.3198C99.6571 11.5998 98.7771 12.2398 97.0171 12.2398H95.2571V23.9198C95.2571 24.8265 95.7638 25.2798 96.7771 25.2798H97.6171C98.9771 25.2798 99.6571 25.9332 99.6571 27.2398C99.6571 28.9732 98.2438 29.8398 95.4171 29.8398C93.3371 29.8398 91.8171 29.4132 90.8571 28.5598C89.8971 27.6798 89.4171 26.3732 89.4171 24.6398ZM104.222 24.6398V12.2398H103.222C101.675 12.2398 100.902 11.5998 100.902 10.3198C100.902 9.03982 101.675 8.39982 103.222 8.39982H104.222V4.83982C104.222 3.90649 104.475 3.18649 104.982 2.67982C105.515 2.17316 106.235 1.91982 107.142 1.91982C108.049 1.91982 108.755 2.17316 109.262 2.67982C109.795 3.18649 110.062 3.90649 110.062 4.83982V8.39982H111.822C113.582 8.39982 114.462 9.03982 114.462 10.3198C114.462 11.5998 113.582 12.2398 111.822 12.2398H110.062V23.9198C110.062 24.8265 110.569 25.2798 111.582 25.2798H112.422C113.782 25.2798 114.462 25.9332 114.462 27.2398C114.462 28.9732 113.049 29.8398 110.222 29.8398C108.142 29.8398 106.622 29.4132 105.662 28.5598C104.702 27.6798 104.222 26.3732 104.222 24.6398ZM136.907 13.8798V23.6798C136.907 24.3465 136.947 24.8932 137.027 25.3198C137.107 25.7465 137.2 26.1732 137.307 26.5998C137.44 27.0265 137.507 27.3598 137.507 27.5998C137.507 28.2398 137.24 28.7732 136.707 29.1998C136.2 29.6265 135.587 29.8398 134.867 29.8398C133.693 29.8398 132.84 29.5332 132.307 28.9198C131.773 28.2798 131.48 27.4532 131.427 26.4398C130.333 27.6398 129.133 28.5065 127.827 29.0398C126.52 29.5732 125.053 29.8398 123.427 29.8398C121.667 29.8398 120.12 29.2932 118.787 28.1998C117.48 27.0798 116.827 25.6398 116.827 23.8798C116.827 22.7065 117.027 21.7198 117.427 20.9198C117.853 20.0932 118.427 19.4398 119.147 18.9598C119.893 18.4532 120.747 18.0665 121.707 17.7998C122.693 17.5065 123.787 17.2932 124.987 17.1598L128.547 16.7598C129.373 16.6532 130 16.4665 130.427 16.1998C130.853 15.9065 131.067 15.3732 131.067 14.5998C131.067 13.7998 130.72 13.1998 130.027 12.7998C129.333 12.3998 128.453 12.1998 127.387 12.1998C126.293 12.1998 125.427 12.3732 124.787 12.7198C124.147 13.0665 123.507 13.5465 122.867 14.1598C122.44 14.5865 122.067 14.9065 121.747 15.1198C121.427 15.3065 121.053 15.3998 120.627 15.3998C119.907 15.3998 119.307 15.1865 118.827 14.7598C118.373 14.3065 118.147 13.7732 118.147 13.1598C118.147 12.5732 118.347 11.9732 118.747 11.3598C119.173 10.7198 119.787 10.1465 120.587 9.63982C121.387 9.10649 122.36 8.67982 123.507 8.35982C124.68 8.03982 125.987 7.87982 127.427 7.87982C130.36 7.87982 132.667 8.37316 134.347 9.35982C136.053 10.3465 136.907 11.8532 136.907 13.8798ZM131.067 21.7598V19.4798C130.8 19.7198 130.453 19.9065 130.027 20.0398C129.627 20.1732 129.147 20.2932 128.587 20.3998H128.547L126.427 20.7198C125.147 20.9065 124.2 21.2265 123.587 21.6798C122.973 22.1065 122.667 22.7465 122.667 23.5998C122.667 24.2665 122.96 24.8398 123.547 25.3198C124.133 25.7732 124.92 25.9998 125.907 25.9998C127.453 25.9998 128.693 25.5865 129.627 24.7598C130.587 23.9065 131.067 22.9065 131.067 21.7598Z" fill="#BA65FF"/>
</svg>
