<svg width="24" height="24" viewBox="0 0 24 24" fill="none" xmlns="http://www.w3.org/2000/svg">
<path d="M9.47754 2.89551C10.9471 1.7015 13.0529 1.7015 14.5225 2.89551L19.5225 6.95801C20.4573 7.71753 20.9999 8.85805 21 10.0625V17.1348C21 19.3439 19.2091 21.1348 17 21.1348H14L13.8975 21.1299C13.427 21.082 13.0528 20.7077 13.0049 20.2373L13 20.1348V15.1348C13 14.5825 12.5523 14.1348 12 14.1348C11.4477 14.1348 11 14.5825 11 15.1348V20.1348L10.9951 20.2373C10.9472 20.7077 10.573 21.082 10.1025 21.1299L10 21.1348H7C4.79086 21.1348 3 19.3439 3 17.1348V10.0625C3.00005 8.85805 3.54275 7.71753 4.47754 6.95801L9.47754 2.89551ZM13.2607 4.44824C12.526 3.85135 11.474 3.85135 10.7393 4.44824L5.73926 8.51074C5.27189 8.89048 5.00005 9.46031 5 10.0625V17.1348C5 18.2393 5.89543 19.1348 7 19.1348H9V15.1348C9 13.4779 10.3431 12.1348 12 12.1348C13.6569 12.1348 15 13.4779 15 15.1348V19.1348H17C18.1046 19.1348 19 18.2393 19 17.1348V10.0625C18.9999 9.46031 18.7281 8.89048 18.2607 8.51074L13.2607 4.44824Z" fill="#464A4D"/>
<rect x="5" y="9" width="14" height="4" fill="#464A4D"/>
<rect x="9" y="13" width="7" height="4" transform="rotate(90 9 13)" fill="#464A4D"/>
<rect x="19" y="13" width="7" height="4" transform="rotate(90 19 13)" fill="#464A4D"/>
<rect x="15" y="13" width="2" height="1" transform="rotate(90 15 13)" fill="#464A4D"/>
<rect x="10" y="13" width="2" height="1" transform="rotate(90 10 13)" fill="#464A4D"/>
<rect x="13" y="4" width="5" height="2" transform="rotate(90 13 4)" fill="#464A4D"/>
<rect x="11" y="4" width="5" height="2" transform="rotate(90 11 4)" fill="#464A4D"/>
<rect x="9" y="5" width="4" height="2" transform="rotate(90 9 5)" fill="#464A4D"/>
<rect x="7" y="7" width="2" height="2" transform="rotate(90 7 7)" fill="#464A4D"/>
<rect x="19" y="7" width="2" height="2" transform="rotate(90 19 7)" fill="#464A4D"/>
<rect x="17" y="5" width="4" height="2" transform="rotate(90 17 5)" fill="#464A4D"/>
<rect x="15" y="4" width="5" height="2" transform="rotate(90 15 4)" fill="#464A4D"/>
</svg>
