<svg xmlns="http://www.w3.org/2000/svg" width="24" height="24" viewBox="0 0 24 24" fill="none">
  <path d="M5.40418 18.6216L4.90623 18.5763C4.8928 18.7241 4.9457 18.8702 5.05063 18.9751C5.15555 19.0801 5.30167 19.133 5.44945 19.1195L5.40418 18.6216ZM5.75773 14.7325L5.40418 14.3789C5.32147 14.4617 5.27037 14.5707 5.25979 14.6872L5.75773 14.7325ZM17.0714 6.24722L17.425 5.89367L17.0714 6.24722ZM17.7785 9.78276L18.1321 10.1363L17.7785 9.78276ZM9.29327 18.268L9.33853 18.766C9.45502 18.7554 9.56411 18.7043 9.64682 18.6216L9.29327 18.268ZM5.40418 18.6216L5.90212 18.6669L6.25568 14.7778L5.75773 14.7325L5.25979 14.6872L4.90623 18.5763L5.40418 18.6216ZM5.75773 14.7325L6.11129 15.0861L14.5966 6.60077L14.243 6.24722L13.8895 5.89367L5.40418 14.3789L5.75773 14.7325ZM14.243 6.24722L14.5966 6.60077C15.1824 6.01499 16.1321 6.01499 16.7179 6.60077L17.0714 6.24722L17.425 5.89367C16.4487 4.91736 14.8658 4.91736 13.8895 5.89367L14.243 6.24722ZM17.0714 6.24722L16.7179 6.60077L17.425 7.30788L17.7785 6.95433L18.1321 6.60077L17.425 5.89367L17.0714 6.24722ZM17.7785 6.95433L17.425 7.30788C18.0108 7.89367 18.0108 8.84342 17.425 9.4292L17.7785 9.78276L18.1321 10.1363C19.1084 9.16 19.1084 7.57709 18.1321 6.60077L17.7785 6.95433ZM17.7785 9.78276L17.425 9.4292L8.93971 17.9145L9.29327 18.268L9.64682 18.6216L18.1321 10.1363L17.7785 9.78276ZM9.29327 18.268L9.248 17.7701L5.35891 18.1236L5.40418 18.6216L5.44945 19.1195L9.33853 18.766L9.29327 18.268Z" fill="currentColor"/>
  <path d="M6.5 14L10 17.5" stroke="currentColor"/>
</svg>