<svg width="60" height="60" viewBox="0 0 60 60" fill="none" xmlns="http://www.w3.org/2000/svg">
<g filter="url(#filter0_d_357_3023)">
<path d="M30 55C43.8071 55 55 43.8071 55 30C55 16.1929 43.8071 5 30 5C16.1929 5 5 16.1929 5 30C5 43.8071 16.1929 55 30 55Z" fill="white"/>
</g>
<path d="M25.4004 26.2867L29.8667 34L37.4004 21" stroke="#B04FFF" stroke-width="2" stroke-linecap="round" stroke-linejoin="round"/>
<path d="M33 19C33.8284 19 34.5 19.6716 34.5 20.5C34.5 21.3284 33.8284 22 33 22H22V38H38V26C38 25.1716 38.6716 24.5 39.5 24.5C40.3284 24.5 41 25.1716 41 26V39C41 40.0357 40.2128 40.887 39.2041 40.9893L39 41H21L20.7959 40.9893C19.8543 40.8938 19.1062 40.1457 19.0107 39.2041L19 39V21C19 19.8954 19.8954 19 21 19H33Z" fill="#B04FFF"/>
<defs>
<filter id="filter0_d_357_3023" x="0" y="0" width="60" height="60" filterUnits="userSpaceOnUse" color-interpolation-filters="sRGB">
<feFlood flood-opacity="0" result="BackgroundImageFix"/>
<feColorMatrix in="SourceAlpha" type="matrix" values="0 0 0 0 0 0 0 0 0 0 0 0 0 0 0 0 0 0 127 0" result="hardAlpha"/>
<feOffset/>
<feGaussianBlur stdDeviation="2.5"/>
<feComposite in2="hardAlpha" operator="out"/>
<feColorMatrix type="matrix" values="0 0 0 0 0.321569 0 0 0 0 0.321569 0 0 0 0 0.321569 0 0 0 0.25 0"/>
<feBlend mode="normal" in2="BackgroundImageFix" result="effect1_dropShadow_357_3023"/>
<feBlend mode="normal" in="SourceGraphic" in2="effect1_dropShadow_357_3023" result="shape"/>
</filter>
</defs>
</svg>
