<svg width="24" height="24" viewBox="0 0 24 24" fill="none" xmlns="http://www.w3.org/2000/svg">
<rect x="6" y="4" width="12" height="14" rx="1" stroke="#A4ADB2" stroke-width="2"/>
<path d="M6 12H18" stroke="#A4ADB2" stroke-width="2"/>
<path d="M6 7H18" stroke="#A4ADB2" stroke-width="2"/>
<path d="M4 7C4 6.44772 4.44772 6 5 6V9C4.44772 9 4 8.55228 4 8V7Z" fill="#A4ADB2"/>
<path d="M19 6C19.5523 6 20 6.44772 20 7V8C20 8.55228 19.5523 9 19 9V6Z" fill="#A4ADB2"/>
<circle cx="9" cy="15" r="1" fill="#A4ADB2"/>
<circle cx="15" cy="15" r="1" fill="#A4ADB2"/>
<path d="M7 18H10V20C10 20.5523 9.55228 21 9 21H8C7.44772 21 7 20.5523 7 20V18Z" fill="#A4ADB2"/>
<path d="M14 18H17V20C17 20.5523 16.5523 21 16 21H15C14.4477 21 14 20.5523 14 20V18Z" fill="#A4ADB2"/>
</svg>
