<svg width="24" height="24" viewBox="0 0 24 24" fill="none" xmlns="http://www.w3.org/2000/svg">
<rect x="6" y="4" width="12" height="14" rx="1" fill="#464A4D" stroke="#464A4D" stroke-width="2"/>
<path d="M4 7C4 6.44772 4.44772 6 5 6V9C4.44772 9 4 8.55228 4 8V7Z" fill="#464A4D"/>
<path d="M19 6C19.5523 6 20 6.44772 20 7V8C20 8.55228 19.5523 9 19 9V6Z" fill="#464A4D"/>
<circle cx="9" cy="15" r="0.5" fill="white" stroke="white"/>
<circle cx="15" cy="15" r="0.5" fill="white" stroke="white"/>
<path d="M7 18H10V20C10 20.5523 9.55228 21 9 21H8C7.44772 21 7 20.5523 7 20V18Z" fill="#464A4D"/>
<path d="M14 18H17V20C17 20.5523 16.5523 21 16 21H15C14.4477 21 14 20.5523 14 20V18Z" fill="#464A4D"/>
<rect x="7" y="8" width="10" height="3" fill="white"/>
</svg>
