<svg xmlns="http://www.w3.org/2000/svg" width="18" height="19" viewBox="0 0 18 19" fill="none">
  <mask id="path-1-inside-1_1647_8709" fill="currentColor">
    <path d="M2 3H16V17C16 18.1046 15.1046 19 14 19H4C2.89543 19 2 18.1046 2 17V3Z"/>
  </mask>
  <path d="M2 3H16H2ZM18 17C18 19.2091 16.2091 21 14 21H4C1.79086 21 0 19.2091 0 17H4H14H18ZM4 21C1.79086 21 0 19.2091 0 17V3H4V17V21ZM18 3V17C18 19.2091 16.2091 21 14 21V17V3H18Z" fill="currentColor" mask="url(#path-1-inside-1_1647_8709)"/>
  <path d="M1 4H17" stroke="currentColor" stroke-width="2" stroke-linecap="round"/>
  <path d="M7 15L7 7" stroke="currentColor" stroke-width="2" stroke-linecap="round"/>
  <path d="M11 15L11 7" stroke="currentColor" stroke-width="2" stroke-linecap="round"/>
  <path d="M6 4V3C6 1.89543 6.89543 1 8 1H10C11.1046 1 12 1.89543 12 3V4" stroke="currentColor" stroke-width="2" stroke-linecap="round"/>
</svg>