<svg xmlns="http://www.w3.org/2000/svg" width="113" height="115" viewBox="0 0 113 115" fill="none">
  <path d="M84.1275 114.179H28.1399C12.6234 114.179 0 101.484 0 85.8797V29.5748C0 13.9704 12.6234 1.27539 28.1399 1.27539H77.4913C80.5666 1.27539 83.0589 3.78183 83.0589 6.87459C83.0589 9.96734 80.5666 12.4738 77.4913 12.4738H28.1399C18.7647 12.4738 11.1369 20.1448 11.1369 29.5732V85.8781C11.1369 95.3065 18.7647 102.978 28.1399 102.978H84.1275C93.5027 102.978 101.131 95.3065 101.131 85.8781V69.7032C101.131 66.6104 103.623 64.104 106.698 64.104C109.774 64.104 112.266 66.6104 112.266 69.7032V85.8781C112.266 101.483 99.6424 114.178 84.1259 114.178L84.1275 114.179Z" fill="url(#paint0_linear_1867_10665)"/>
  <path d="M64.6408 84.8373C60.6242 84.8373 56.4511 83.6818 52.7647 81.6703C49.6905 82.6713 46.2249 83.3365 42.8078 83.5478C42.0016 83.5982 41.2268 83.6218 40.4864 83.6218C33.1795 83.6218 29.0189 81.3219 26.7648 79.282C21.1672 74.217 19.029 65.326 21.3159 56.6337C23.2381 49.3286 26.3265 43.6803 31.3293 38.3174C33.4268 36.0694 36.9362 35.9591 39.17 38.0715C41.4021 40.1838 41.5117 43.7182 39.4142 45.9661C35.6386 50.0128 33.5019 53.9333 32.0384 59.4965C30.844 64.0334 31.7253 68.7516 34.1782 70.9727C35.0923 71.8003 37.7236 72.6689 42.1253 72.3978C42.4978 72.3742 42.8672 72.3442 43.232 72.3064C42.9799 71.8193 42.7514 71.3211 42.5479 70.8151C40.596 65.9708 40.1091 60.7513 41.1751 56.1214C42.418 50.7222 45.6973 46.4296 50.4089 44.035C54.9343 41.7335 60.6195 41.9069 64.8913 44.4748C69.127 47.0223 71.5423 51.534 71.691 57.1807C71.8021 61.3582 70.3574 65.9724 67.6227 70.1735C66.8213 71.4047 65.9259 72.5775 64.9586 73.6715C65.7193 73.6447 66.4394 73.5218 67.0905 73.2885C72.2937 71.433 77.5594 65.9156 81.1737 58.527C88.9236 42.6872 94.8812 24.9778 99.3878 4.38513C100.047 1.37261 103.007 -0.531692 105.998 0.131977C108.989 0.795646 110.88 3.77664 110.221 6.78916C105.521 28.2693 99.2735 46.8079 91.1244 63.4643C88.789 68.2377 82.1317 79.777 70.7925 83.8205C68.85 84.5125 66.7665 84.8373 64.6393 84.8373H64.6408ZM57.3057 53.6038C56.5982 53.6038 55.9048 53.7567 55.4117 54.0074C51.237 56.1292 50.9537 61.9572 52.8305 66.6155C53.1169 67.3265 53.5458 68.0154 54.0827 68.6649C57.8426 65.8352 60.7009 61.0807 60.6054 57.4786C60.5366 54.865 59.5363 54.2643 59.2076 54.0673C58.6676 53.7426 57.9804 53.6038 57.3057 53.6038Z" fill="url(#paint1_linear_1867_10665)"/>
  <defs>
    <linearGradient id="paint0_linear_1867_10665" x1="12.5229" y1="101.585" x2="101.935" y2="12.6789" gradientUnits="userSpaceOnUse">
      <stop stop-color="#B04FFF"/>
      <stop offset="0.19" stop-color="#AB50FF"/>
      <stop offset="0.39" stop-color="#9F55FF"/>
      <stop offset="0.59" stop-color="#8A5CFF"/>
      <stop offset="0.79" stop-color="#6D67FF"/>
      <stop offset="0.99" stop-color="#4874FF"/>
      <stop offset="1" stop-color="#4775FF"/>
    </linearGradient>
    <linearGradient id="paint1_linear_1867_10665" x1="13.0401" y1="101.325" x2="102.226" y2="12.7645" gradientUnits="userSpaceOnUse">
      <stop stop-color="#B04FFF"/>
      <stop offset="0.19" stop-color="#AB50FF"/>
      <stop offset="0.39" stop-color="#9F55FF"/>
      <stop offset="0.59" stop-color="#8A5CFF"/>
      <stop offset="0.79" stop-color="#6D67FF"/>
      <stop offset="0.99" stop-color="#4874FF"/>
      <stop offset="1" stop-color="#4775FF"/>
    </linearGradient>
  </defs>
</svg>